<svg
	class="svg-icon"
	style="width: 1em; height: 1em;vertical-align: middle;fill: #fff;overflow: hidden;"
	viewBox="0 0 1024 1024"
	version="1.1"
	xmlns="http://www.w3.org/2000/svg"
>
	<path d="M736.653061 929.959184H287.346939c-45.97551 0-83.591837-37.616327-83.591837-83.591837V177.632653c0-45.97551 37.616327-83.591837 83.591837-83.591837h449.306122c45.97551 0 83.591837 37.616327 83.591837 83.591837v668.734694c0 45.97551-37.616327 83.591837-83.591837 83.591837zM287.346939 135.836735c-22.987755 0-41.795918 18.808163-41.795919 41.795918v668.734694c0 22.987755 18.808163 41.795918 41.795919 41.795918h449.306122c22.987755 0 41.795918-18.808163 41.795919-41.795918V177.632653c0-22.987755-18.808163-41.795918-41.795919-41.795918H287.346939z"  />
	<path d="M694.857143 606.040816H329.142857c-11.493878 0-20.897959-9.404082-20.897959-20.897959s9.404082-20.897959 20.897959-20.897959h365.714286c11.493878 0 20.897959 9.404082 20.897959 20.897959s-9.404082 20.897959-20.897959 20.897959zM694.857143 449.306122H329.142857c-11.493878 0-20.897959-9.404082-20.897959-20.897959s9.404082-20.897959 20.897959-20.897959h365.714286c11.493878 0 20.897959 9.404082 20.897959 20.897959s-9.404082 20.897959-20.897959 20.897959zM701.126531 292.571429h-365.714286c-11.493878 0-20.897959-9.404082-20.897959-20.89796s9.404082-20.897959 20.897959-20.897959h365.714286c11.493878 0 20.897959 9.404082 20.897959 20.897959s-9.404082 20.897959-20.897959 20.89796zM590.367347 762.77551H329.142857c-11.493878 0-20.897959-9.404082-20.897959-20.897959s9.404082-20.897959 20.897959-20.897959h261.22449c11.493878 0 20.897959 9.404082 20.897959 20.897959s-9.404082 20.897959-20.897959 20.897959z"  />
	<path d="M736.653061 929.959184H287.346939c-45.97551 0-83.591837-37.616327-83.591837-83.591837V177.632653c0-45.97551 37.616327-83.591837 83.591837-83.591837h449.306122c45.97551 0 83.591837 37.616327 83.591837 83.591837v668.734694c0 45.97551-37.616327 83.591837-83.591837 83.591837zM287.346939 135.836735c-22.987755 0-41.795918 18.808163-41.795919 41.795918v668.734694c0 22.987755 18.808163 41.795918 41.795919 41.795918h449.306122c22.987755 0 41.795918-18.808163 41.795919-41.795918V177.632653c0-22.987755-18.808163-41.795918-41.795919-41.795918H287.346939z"  />
	<path d="M694.857143 606.040816H329.142857c-11.493878 0-20.897959-9.404082-20.897959-20.897959s9.404082-20.897959 20.897959-20.897959h365.714286c11.493878 0 20.897959 9.404082 20.897959 20.897959s-9.404082 20.897959-20.897959 20.897959zM694.857143 449.306122H329.142857c-11.493878 0-20.897959-9.404082-20.897959-20.897959s9.404082-20.897959 20.897959-20.897959h365.714286c11.493878 0 20.897959 9.404082 20.897959 20.897959s-9.404082 20.897959-20.897959 20.897959zM701.126531 292.571429h-365.714286c-11.493878 0-20.897959-9.404082-20.897959-20.89796s9.404082-20.897959 20.897959-20.897959h365.714286c11.493878 0 20.897959 9.404082 20.897959 20.897959s-9.404082 20.897959-20.897959 20.89796zM590.367347 762.77551H329.142857c-11.493878 0-20.897959-9.404082-20.897959-20.897959s9.404082-20.897959 20.897959-20.897959h261.22449c11.493878 0 20.897959 9.404082 20.897959 20.897959s-9.404082 20.897959-20.897959 20.897959z"  />
	<path d="M736.653061 929.959184H287.346939c-45.97551 0-83.591837-37.616327-83.591837-83.591837V177.632653c0-45.97551 37.616327-83.591837 83.591837-83.591837h449.306122c45.97551 0 83.591837 37.616327 83.591837 83.591837v668.734694c0 45.97551-37.616327 83.591837-83.591837 83.591837zM287.346939 135.836735c-22.987755 0-41.795918 18.808163-41.795919 41.795918v668.734694c0 22.987755 18.808163 41.795918 41.795919 41.795918h449.306122c22.987755 0 41.795918-18.808163 41.795919-41.795918V177.632653c0-22.987755-18.808163-41.795918-41.795919-41.795918H287.346939z"  />
	<path d="M694.857143 606.040816H329.142857c-11.493878 0-20.897959-9.404082-20.897959-20.897959s9.404082-20.897959 20.897959-20.897959h365.714286c11.493878 0 20.897959 9.404082 20.897959 20.897959s-9.404082 20.897959-20.897959 20.897959zM694.857143 449.306122H329.142857c-11.493878 0-20.897959-9.404082-20.897959-20.897959s9.404082-20.897959 20.897959-20.897959h365.714286c11.493878 0 20.897959 9.404082 20.897959 20.897959s-9.404082 20.897959-20.897959 20.897959zM701.126531 292.571429h-365.714286c-11.493878 0-20.897959-9.404082-20.897959-20.89796s9.404082-20.897959 20.897959-20.897959h365.714286c11.493878 0 20.897959 9.404082 20.897959 20.897959s-9.404082 20.897959-20.897959 20.89796zM590.367347 762.77551H329.142857c-11.493878 0-20.897959-9.404082-20.897959-20.897959s9.404082-20.897959 20.897959-20.897959h261.22449c11.493878 0 20.897959 9.404082 20.897959 20.897959s-9.404082 20.897959-20.897959 20.897959z"  />
	<path d="M736.653061 929.959184H287.346939c-45.97551 0-83.591837-37.616327-83.591837-83.591837V177.632653c0-45.97551 37.616327-83.591837 83.591837-83.591837h449.306122c45.97551 0 83.591837 37.616327 83.591837 83.591837v668.734694c0 45.97551-37.616327 83.591837-83.591837 83.591837zM287.346939 135.836735c-22.987755 0-41.795918 18.808163-41.795919 41.795918v668.734694c0 22.987755 18.808163 41.795918 41.795919 41.795918h449.306122c22.987755 0 41.795918-18.808163 41.795919-41.795918V177.632653c0-22.987755-18.808163-41.795918-41.795919-41.795918H287.346939z"  />
	<path d="M694.857143 606.040816H329.142857c-11.493878 0-20.897959-9.404082-20.897959-20.897959s9.404082-20.897959 20.897959-20.897959h365.714286c11.493878 0 20.897959 9.404082 20.897959 20.897959s-9.404082 20.897959-20.897959 20.897959zM694.857143 449.306122H329.142857c-11.493878 0-20.897959-9.404082-20.897959-20.897959s9.404082-20.897959 20.897959-20.897959h365.714286c11.493878 0 20.897959 9.404082 20.897959 20.897959s-9.404082 20.897959-20.897959 20.897959zM701.126531 292.571429h-365.714286c-11.493878 0-20.897959-9.404082-20.897959-20.89796s9.404082-20.897959 20.897959-20.897959h365.714286c11.493878 0 20.897959 9.404082 20.897959 20.897959s-9.404082 20.897959-20.897959 20.89796zM590.367347 762.77551H329.142857c-11.493878 0-20.897959-9.404082-20.897959-20.897959s9.404082-20.897959 20.897959-20.897959h261.22449c11.493878 0 20.897959 9.404082 20.897959 20.897959s-9.404082 20.897959-20.897959 20.897959z"  />
	<path d="M736.653061 929.959184H287.346939c-45.97551 0-83.591837-37.616327-83.591837-83.591837V177.632653c0-45.97551 37.616327-83.591837 83.591837-83.591837h449.306122c45.97551 0 83.591837 37.616327 83.591837 83.591837v668.734694c0 45.97551-37.616327 83.591837-83.591837 83.591837zM287.346939 135.836735c-22.987755 0-41.795918 18.808163-41.795919 41.795918v668.734694c0 22.987755 18.808163 41.795918 41.795919 41.795918h449.306122c22.987755 0 41.795918-18.808163 41.795919-41.795918V177.632653c0-22.987755-18.808163-41.795918-41.795919-41.795918H287.346939z"  />
	<path d="M694.857143 606.040816H329.142857c-11.493878 0-20.897959-9.404082-20.897959-20.897959s9.404082-20.897959 20.897959-20.897959h365.714286c11.493878 0 20.897959 9.404082 20.897959 20.897959s-9.404082 20.897959-20.897959 20.897959zM694.857143 449.306122H329.142857c-11.493878 0-20.897959-9.404082-20.897959-20.897959s9.404082-20.897959 20.897959-20.897959h365.714286c11.493878 0 20.897959 9.404082 20.897959 20.897959s-9.404082 20.897959-20.897959 20.897959zM701.126531 292.571429h-365.714286c-11.493878 0-20.897959-9.404082-20.897959-20.89796s9.404082-20.897959 20.897959-20.897959h365.714286c11.493878 0 20.897959 9.404082 20.897959 20.897959s-9.404082 20.897959-20.897959 20.89796zM590.367347 762.77551H329.142857c-11.493878 0-20.897959-9.404082-20.897959-20.897959s9.404082-20.897959 20.897959-20.897959h261.22449c11.493878 0 20.897959 9.404082 20.897959 20.897959s-9.404082 20.897959-20.897959 20.897959z"  />
	<path d="M736.653061 929.959184H287.346939c-45.97551 0-83.591837-37.616327-83.591837-83.591837V177.632653c0-45.97551 37.616327-83.591837 83.591837-83.591837h449.306122c45.97551 0 83.591837 37.616327 83.591837 83.591837v668.734694c0 45.97551-37.616327 83.591837-83.591837 83.591837zM287.346939 135.836735c-22.987755 0-41.795918 18.808163-41.795919 41.795918v668.734694c0 22.987755 18.808163 41.795918 41.795919 41.795918h449.306122c22.987755 0 41.795918-18.808163 41.795919-41.795918V177.632653c0-22.987755-18.808163-41.795918-41.795919-41.795918H287.346939z"  />
	<path d="M694.857143 606.040816H329.142857c-11.493878 0-20.897959-9.404082-20.897959-20.897959s9.404082-20.897959 20.897959-20.897959h365.714286c11.493878 0 20.897959 9.404082 20.897959 20.897959s-9.404082 20.897959-20.897959 20.897959zM694.857143 449.306122H329.142857c-11.493878 0-20.897959-9.404082-20.897959-20.897959s9.404082-20.897959 20.897959-20.897959h365.714286c11.493878 0 20.897959 9.404082 20.897959 20.897959s-9.404082 20.897959-20.897959 20.897959zM701.126531 292.571429h-365.714286c-11.493878 0-20.897959-9.404082-20.897959-20.89796s9.404082-20.897959 20.897959-20.897959h365.714286c11.493878 0 20.897959 9.404082 20.897959 20.897959s-9.404082 20.897959-20.897959 20.89796zM590.367347 762.77551H329.142857c-11.493878 0-20.897959-9.404082-20.897959-20.897959s9.404082-20.897959 20.897959-20.897959h261.22449c11.493878 0 20.897959 9.404082 20.897959 20.897959s-9.404082 20.897959-20.897959 20.897959z"  />
	<path d="M736.653061 929.959184H287.346939c-45.97551 0-83.591837-37.616327-83.591837-83.591837V177.632653c0-45.97551 37.616327-83.591837 83.591837-83.591837h449.306122c45.97551 0 83.591837 37.616327 83.591837 83.591837v668.734694c0 45.97551-37.616327 83.591837-83.591837 83.591837zM287.346939 135.836735c-22.987755 0-41.795918 18.808163-41.795919 41.795918v668.734694c0 22.987755 18.808163 41.795918 41.795919 41.795918h449.306122c22.987755 0 41.795918-18.808163 41.795919-41.795918V177.632653c0-22.987755-18.808163-41.795918-41.795919-41.795918H287.346939z"  />
	<path d="M694.857143 606.040816H329.142857c-11.493878 0-20.897959-9.404082-20.897959-20.897959s9.404082-20.897959 20.897959-20.897959h365.714286c11.493878 0 20.897959 9.404082 20.897959 20.897959s-9.404082 20.897959-20.897959 20.897959zM694.857143 449.306122H329.142857c-11.493878 0-20.897959-9.404082-20.897959-20.897959s9.404082-20.897959 20.897959-20.897959h365.714286c11.493878 0 20.897959 9.404082 20.897959 20.897959s-9.404082 20.897959-20.897959 20.897959zM701.126531 292.571429h-365.714286c-11.493878 0-20.897959-9.404082-20.897959-20.89796s9.404082-20.897959 20.897959-20.897959h365.714286c11.493878 0 20.897959 9.404082 20.897959 20.897959s-9.404082 20.897959-20.897959 20.89796zM590.367347 762.77551H329.142857c-11.493878 0-20.897959-9.404082-20.897959-20.897959s9.404082-20.897959 20.897959-20.897959h261.22449c11.493878 0 20.897959 9.404082 20.897959 20.897959s-9.404082 20.897959-20.897959 20.897959z"  />
</svg>